<svg fill="#15DAB6" xmlns="http://www.w3.org/2000/svg" xmlns:xlink="http://www.w3.org/1999/xlink" version="1.1" x="0px" y="0px" viewBox="0 0 100 100" style="enable-background:new 0 0 100 100;" xml:space="preserve"><path d="M44.7,12.7c-1.3-0.6-2.8-0.2-3.8,0.8L23.3,31.2H8c-2,0-3.6,1.6-3.6,3.5v30.5c0,2,1.6,3.5,3.6,3.5h15.3  L41,86.5c0.7,0.7,1.6,1.1,2.5,1.1c0.5,0,0.8-0.1,1.2-0.3c1.3-0.6,2.1-1.9,2.1-3.3V16C46.8,14.5,46.1,13.2,44.7,12.7z M60.8,65.2  c-0.7,0.8-1.7,1.2-2.7,1.2c-0.8,0-1.7-0.3-2.4-0.9c-1.5-1.3-1.6-3.6-0.3-5.1c8.9-10,0.9-19.7,0-20.8c-1.3-1.5-1.2-3.7,0.3-5  c1.5-1.3,3.7-1.2,5,0.3C65.5,40.1,71.6,53.2,60.8,65.2z M71.7,74.7c-0.7,0.8-1.7,1.2-2.7,1.2c-0.8,0-1.7-0.3-2.4-0.9  c-1.5-1.3-1.6-3.6-0.3-5.1C84,50.2,67,30.8,66.3,30c-1.3-1.5-1.2-3.7,0.3-5.1c1.5-1.3,3.7-1.2,5.1,0.3  C71.9,25.5,93.5,50.3,71.7,74.7z M83,81.9c-0.7,0.8-1.7,1.2-2.7,1.2c-0.8,0-1.7-0.3-2.4-0.9c-1.5-1.3-1.6-3.6-0.3-5.1  C87.7,65.9,90.8,53.4,86.7,40c-3-10.2-9.1-17-9.1-17.1c-1.3-1.5-1.2-3.7,0.3-5.1c1.5-1.3,3.7-1.2,5.1,0.3  C83.2,18.4,111.2,50.4,83,81.9z"></path></svg>